<svg width="91" height="20" viewBox="0 0 91 20" fill="none" xmlns="http://www.w3.org/2000/svg">
<path d="M26.9293 16.6014H26.83V18.3902H24.7478V1.24072H26.953V7.809H27.0524C28.0319 6.51238 29.8964 5.77416 31.4391 5.77416C35.2627 5.77416 37.7377 8.44312 37.7377 12.2667C37.7377 16.0903 35.2627 18.7593 31.4391 18.7593C29.7971 18.7593 27.7622 17.9501 26.9293 16.6014ZM35.4047 12.262C35.4047 9.51733 33.6916 7.72856 31.1883 7.72856C28.685 7.72856 26.9483 9.51733 26.9483 12.262C26.9483 15.0067 28.6897 16.7954 31.1883 16.7954C33.6869 16.7954 35.4047 15.0067 35.4047 12.262Z" fill="white"/>
<path d="M38.5894 13.1707V6.13867H40.7946V12.3852C40.7946 15.2008 42.0202 16.6725 44.3721 16.6725C46.9464 16.6725 48.3897 14.8838 48.3897 12.3852V6.13867H50.5949V18.3903H48.5128V16.6773H48.4134C47.4338 17.9029 45.8675 18.6364 43.9557 18.6364C40.6715 18.6364 38.5894 16.5306 38.5894 13.1754V13.1707Z" fill="white"/>
<path d="M51.6976 14.4673H54.0258C54.0258 15.7639 55.1048 16.7955 57.6744 16.7955C59.7092 16.7955 60.8828 16.1094 60.8828 15.0068C60.8828 12.1154 51.9389 14.6661 51.9389 9.59314C51.9389 7.14187 54.1915 5.76953 57.2532 5.76953C60.8071 5.76953 62.8372 7.58196 62.8372 9.81082H60.5089C60.5089 8.68456 59.5294 7.72866 57.3005 7.72866C55.1947 7.72866 54.2625 8.49054 54.2625 9.51743C54.2625 12.4325 63.2063 9.86288 63.2063 14.9547C63.2063 17.3066 61.1951 18.7499 57.6223 18.7499C53.3823 18.7499 51.6929 16.7671 51.6929 14.4626L51.6976 14.4673Z" fill="white"/>
<path d="M64.3137 18.3902V1.24072H66.5189V7.73329H66.6183C67.6736 6.53131 69.2399 5.8972 71.076 5.8972C74.3602 5.8972 76.4423 8.00303 76.4423 11.3629V18.3949H74.2371V12.1484C74.2371 9.33277 73.0115 7.86106 70.6596 7.86106C68.0853 7.86106 66.5189 9.64983 66.5189 12.1484V18.3949H64.3137V18.3902Z" fill="white"/>
<path d="M77.1758 14.7888C77.1758 12.5078 79.3337 10.9178 82.5421 10.9178C84.2835 10.9178 85.9493 11.3579 86.9762 11.9731V10.4777C86.9762 8.73628 85.7269 7.73305 83.375 7.73305C81.3401 7.73305 79.8447 8.49494 79.8447 9.7679H77.5686C77.5686 7.31662 79.9205 5.77393 83.4223 5.77393C86.9241 5.77393 89.1814 7.56269 89.1814 10.525V15.3519C89.1814 16.1138 89.4984 16.4545 90.0899 16.4545C90.3833 16.4545 90.6057 16.4072 90.7761 16.2841V18.1439C90.407 18.2906 89.9669 18.39 89.4511 18.39C88.2491 18.39 87.5913 17.8978 87.2222 17.0176H87.1229C86.096 17.9262 84.2788 18.636 82.1493 18.636C79.2106 18.636 77.1758 17.2164 77.1758 14.7888ZM86.9762 15.2052V13.6862C86.0203 13.194 84.5249 12.8769 83.0579 12.8769C80.8054 12.8769 79.504 13.6625 79.504 14.7888C79.504 16.1374 80.829 16.6769 82.6651 16.6769C84.3545 16.6769 85.9966 16.1847 86.9762 15.2052Z" fill="white"/>
<path d="M18.9713 13.0926C18.9713 10.6148 17.2151 8.54714 14.8796 8.06661C14.8709 8.09173 14.8625 8.11698 14.8537 8.14207V8.14219C13.773 11.2347 12.0903 14.0465 9.94647 16.4343C10.8875 17.5297 12.2828 18.2237 13.8402 18.2237C16.674 18.2237 18.9713 15.9264 18.9713 13.0926ZM9.49793 1.86319C8.97602 6.9511 6.31732 11.4225 2.43883 14.3498L6.59311 17.2468C6.96898 16.9221 7.33385 16.5843 7.68694 16.2347C7.20464 15.2921 6.93262 14.2241 6.93261 13.0926C6.93261 9.35584 9.89975 6.31215 13.6065 6.18895C13.9542 4.94888 14.1999 3.66796 14.3322 2.3515L9.49793 1.86319ZM8.70891 13.0926C8.70891 13.6962 8.81345 14.2754 9.00492 14.8133C10.7066 12.8189 12.0694 10.5271 13.0052 8.02919C10.5684 8.42797 8.70891 10.543 8.70891 13.0926ZM20.7476 13.0926C20.7476 16.9074 17.655 20 13.8402 20C11.8045 20 9.97446 19.1193 8.71027 17.7183C8.22703 18.1843 7.72384 18.6305 7.2021 19.0539C6.89466 19.3033 6.45916 19.3191 6.13441 19.0926L0.380152 15.0797C0.137467 14.9105 -0.00504161 14.6315 0.000136416 14.3357C0.00532562 14.0399 0.157475 13.766 0.405925 13.6054C4.64762 10.8629 7.52611 6.18308 7.79511 0.843455L7.79845 0.798106C7.82146 0.572335 7.93027 0.363299 8.10326 0.214638C8.28779 0.0560615 8.52928 -0.0199546 8.77136 0.00449558L15.3775 0.671723C15.8523 0.719686 16.2044 1.13444 16.1747 1.6108C16.0725 3.2458 15.8084 4.8327 15.4009 6.36205C18.4641 7.06953 20.7476 9.8144 20.7476 13.0926Z" fill="#16CB3E"/>
</svg>
